<?xml version="1.0" encoding="UTF-8" standalone="no"?>
<!DOCTYPE svg PUBLIC "-//W3C//DTD SVG 1.1//EN" "http://www.w3.org/Graphics/SVG/1.1/DTD/svg11.dtd">
<svg width="100%" height="100%" viewBox="0 0 478 478" version="1.1" xmlns="http://www.w3.org/2000/svg" xmlns:xlink="http://www.w3.org/1999/xlink" xml:space="preserve" xmlns:serif="http://www.serif.com/" style="fill-rule:evenodd;clip-rule:evenodd;stroke-linejoin:round;stroke-miterlimit:2;">
    <g>
        <g>
            <path d="M153.6,0L17.067,0C7.641,0 0,7.641 0,17.067L0,153.6C0,163.026 7.641,170.667 17.067,170.667L153.6,170.667C163.026,170.667 170.667,163.026 170.667,153.6L170.667,17.067C170.667,7.641 163.026,0 153.6,0ZM136.533,136.533L34.133,136.533L34.133,34.133L136.533,34.133L136.533,136.533Z" style="fill:rgb(87,181,96);fill-rule:nonzero;"/>
        </g>
    </g>
    <g>
        <g>
            <path d="M85.333,51.2C75.907,51.2 68.266,58.841 68.266,68.267L68.266,102.4C68.266,111.826 75.907,119.467 85.333,119.467C94.759,119.467 102.4,111.826 102.4,102.4L102.4,68.267C102.4,58.841 94.759,51.2 85.333,51.2Z" style="fill:rgb(87,181,96);fill-rule:nonzero;"/>
        </g>
    </g>
    <g>
        <g>
            <path d="M153.6,307.2L17.067,307.2C7.641,307.2 0,314.841 0,324.267L0,460.8C0,470.226 7.641,477.867 17.067,477.867L153.6,477.867C163.026,477.867 170.667,470.226 170.667,460.8L170.667,324.267C170.667,314.841 163.026,307.2 153.6,307.2ZM136.533,443.733L34.133,443.733L34.133,341.333L136.533,341.333L136.533,443.733Z" style="fill:rgb(87,181,96);fill-rule:nonzero;"/>
        </g>
    </g>
    <g>
        <g>
            <path d="M85.333,358.4C75.907,358.4 68.266,366.041 68.266,375.467L68.266,409.6C68.266,419.026 75.907,426.667 85.333,426.667C94.759,426.667 102.4,419.026 102.4,409.6L102.4,375.467C102.4,366.041 94.759,358.4 85.333,358.4Z" style="fill:rgb(87,181,96);fill-rule:nonzero;"/>
        </g>
    </g>
    <g>
        <g>
            <path d="M460.8,307.2L324.267,307.2C314.841,307.2 307.2,314.841 307.2,324.267L307.2,460.8C307.2,470.226 314.841,477.867 324.267,477.867L460.8,477.867C470.226,477.867 477.867,470.226 477.867,460.8L477.867,324.267C477.867,314.841 470.226,307.2 460.8,307.2ZM443.733,443.733L341.333,443.733L341.333,341.333L443.733,341.333L443.733,443.733Z" style="fill:rgb(87,181,96);fill-rule:nonzero;"/>
        </g>
    </g>
    <g>
        <g>
            <path d="M392.533,358.4C383.107,358.4 375.466,366.041 375.466,375.467L375.466,409.6C375.466,419.026 383.107,426.667 392.533,426.667C401.959,426.667 409.6,419.026 409.6,409.6L409.6,375.467C409.6,366.041 401.959,358.4 392.533,358.4Z" style="fill:rgb(87,181,96);fill-rule:nonzero;"/>
        </g>
    </g>
    <g>
        <g>
            <path d="M460.8,0L375.467,0C366.041,0 358.4,7.641 358.4,17.067C358.4,26.493 366.041,34.134 375.467,34.134L443.734,34.134L443.734,102.4C443.734,111.826 451.375,119.467 460.801,119.467C470.227,119.467 477.868,111.826 477.868,102.4L477.868,17.067C477.867,7.641 470.226,0 460.8,0Z" style="fill:rgb(87,181,96);fill-rule:nonzero;"/>
        </g>
    </g>
    <g>
        <g>
            <path d="M204.8,375.467C195.374,375.467 187.733,383.108 187.733,392.534L187.733,460.8C187.733,470.226 195.374,477.867 204.8,477.867C214.226,477.867 221.867,470.226 221.867,460.8L221.867,392.533C221.867,383.108 214.226,375.467 204.8,375.467Z" style="fill:rgb(87,181,96);fill-rule:nonzero;"/>
        </g>
    </g>
    <g>
        <g>
            <path d="M290.133,170.667L204.8,170.667C195.374,170.667 187.733,178.308 187.733,187.734L187.733,256L136.533,256C127.107,256 119.466,263.641 119.466,273.067C119.466,282.493 127.107,290.134 136.533,290.134L204.8,290.134C214.226,290.134 221.867,282.493 221.867,273.067L221.867,204.8L290.134,204.8C299.56,204.8 307.201,197.159 307.201,187.733C307.2,178.308 299.559,170.667 290.133,170.667Z" style="fill:rgb(87,181,96);fill-rule:nonzero;"/>
        </g>
    </g>
    <g>
        <g>
            <path d="M153.6,204.8L85.333,204.8C75.907,204.8 68.266,212.441 68.266,221.867C68.266,231.293 75.907,238.934 85.333,238.934L153.6,238.934C163.026,238.934 170.667,231.293 170.667,221.867C170.667,212.441 163.026,204.8 153.6,204.8Z" style="fill:rgb(87,181,96);fill-rule:nonzero;"/>
        </g>
    </g>
    <g>
        <g>
            <path d="M290.133,119.467L221.866,119.467L221.866,68.267C221.866,58.841 214.225,51.2 204.799,51.2C195.373,51.2 187.732,58.841 187.732,68.267L187.732,136.534C187.732,145.96 195.373,153.601 204.799,153.601L290.132,153.601C299.558,153.601 307.199,145.96 307.199,136.534C307.2,127.108 299.559,119.467 290.133,119.467Z" style="fill:rgb(87,181,96);fill-rule:nonzero;"/>
        </g>
    </g>
    <g>
        <g>
            <path d="M409.6,68.267L341.333,68.267L341.333,17.067C341.333,7.641 333.692,0 324.267,0L204.8,0C195.374,0 187.733,7.641 187.733,17.067C187.733,26.493 195.374,34.134 204.8,34.134L307.2,34.134L307.2,85.334C307.2,94.76 314.841,102.401 324.267,102.401L409.6,102.401C419.026,102.401 426.667,94.76 426.667,85.334C426.667,75.908 419.026,68.267 409.6,68.267Z" style="fill:rgb(87,181,96);fill-rule:nonzero;"/>
        </g>
    </g>
    <g>
        <g>
            <path d="M341.333,119.467C331.907,119.467 324.266,127.108 324.266,136.534L324.266,204.8C324.266,214.226 331.907,221.867 341.333,221.867C350.759,221.867 358.4,214.226 358.4,204.8L358.4,136.533C358.4,127.108 350.759,119.467 341.333,119.467Z" style="fill:rgb(87,181,96);fill-rule:nonzero;"/>
        </g>
    </g>
    <g>
        <g>
            <path d="M460.8,136.533L392.533,136.533C383.107,136.533 375.466,144.174 375.466,153.6C375.466,163.026 383.107,170.667 392.533,170.667L460.8,170.667C470.226,170.667 477.867,163.026 477.867,153.6C477.867,144.174 470.226,136.533 460.8,136.533Z" style="fill:rgb(87,181,96);fill-rule:nonzero;"/>
        </g>
    </g>
    <g>
        <g>
            <path d="M460.8,187.733L392.533,187.733C383.107,187.733 375.466,195.374 375.466,204.8C375.466,214.226 383.107,221.867 392.533,221.867L443.733,221.867L443.733,273.067C443.733,282.493 451.374,290.134 460.8,290.134C470.226,290.134 477.867,282.493 477.867,273.067L477.867,204.8C477.867,195.374 470.226,187.733 460.8,187.733Z" style="fill:rgb(87,181,96);fill-rule:nonzero;"/>
        </g>
    </g>
    <g>
        <g>
            <path d="M409.6,238.933L324.267,238.933C314.841,238.933 307.2,246.574 307.2,256C307.2,265.426 314.841,273.067 324.267,273.067L409.6,273.067C419.026,273.067 426.667,265.426 426.667,256C426.667,246.574 419.026,238.933 409.6,238.933Z" style="fill:rgb(87,181,96);fill-rule:nonzero;"/>
        </g>
    </g>
    <g>
        <g>
            <path d="M273.067,324.267L204.8,324.267C195.374,324.267 187.733,331.908 187.733,341.334C187.733,350.76 195.374,358.4 204.8,358.4L256,358.4L256,460.8C256,470.226 263.641,477.867 273.067,477.867C282.493,477.867 290.134,470.226 290.134,460.8L290.134,341.333C290.133,331.908 282.492,324.267 273.067,324.267Z" style="fill:rgb(87,181,96);fill-rule:nonzero;"/>
        </g>
    </g>
    <g>
        <g>
            <path d="M273.067,273.067L256,273.067C246.574,273.067 238.933,280.708 238.933,290.134C238.933,299.56 246.574,307.2 256,307.2L273.067,307.2C282.493,307.2 290.134,299.559 290.134,290.133C290.134,280.707 282.492,273.067 273.067,273.067Z" style="fill:rgb(87,181,96);fill-rule:nonzero;"/>
        </g>
    </g>
    <g>
        <g>
            <path d="M273.067,221.867L256,221.867C246.574,221.867 238.933,229.508 238.933,238.934C238.933,248.36 246.574,256 256,256L273.067,256C282.493,256 290.134,248.359 290.134,238.933C290.134,229.507 282.492,221.867 273.067,221.867Z" style="fill:rgb(87,181,96);fill-rule:nonzero;"/>
        </g>
    </g>
    <g>
        <g>
            <path d="M68.267,256L17.067,256C7.641,256 0,263.641 0,273.067C0,282.493 7.641,290.134 17.067,290.134L68.267,290.134C77.693,290.134 85.334,282.493 85.334,273.067C85.334,263.641 77.692,256 68.267,256Z" style="fill:rgb(87,181,96);fill-rule:nonzero;"/>
        </g>
    </g>
    <g>
        <g>
            <path d="M256,51.2C246.574,51.2 238.933,58.841 238.933,68.267L238.933,85.334C238.933,94.76 246.574,102.401 256,102.401C265.426,102.401 273.067,94.76 273.067,85.334L273.067,68.267C273.067,58.841 265.426,51.2 256,51.2Z" style="fill:rgb(87,181,96);fill-rule:nonzero;"/>
        </g>
    </g>
    <g>
        <g>
            <path d="M34.133,204.8L17.067,204.8C7.641,204.8 0,212.441 0,221.867C0,231.293 7.641,238.934 17.067,238.934L34.134,238.934C43.56,238.934 51.201,231.293 51.201,221.867C51.201,212.441 43.559,204.8 34.133,204.8Z" style="fill:rgb(87,181,96);fill-rule:nonzero;"/>
        </g>
    </g>
</svg>
